<svg fill="#f06414" viewBox="0 0 502 526" xmlns="http://www.w3.org/2000/svg"><path clip-rule="evenodd" d="M246.807 97.6691C249.247 96.7766 251.924 96.7766 254.364 97.6691L494.74 185.601C504.368 189.123 504.368 202.74 494.74 206.262L255.155 293.904C252.715 294.797 250.038 294.797 247.598 293.904L105.643 241.976C96.5447 255.321 91.0945 270.702 87.9492 286.144C85.812 296.637 84.792 306.899 84.3711 316.178C93.0748 321.605 98.9813 332.158 98.9814 344.287C98.9813 355.051 94.3297 364.573 87.2002 370.373L99.0547 483.453C99.5493 488.175 95.8464 492.287 91.0986 492.287H50.8633C46.1154 492.287 42.4126 488.175 42.9072 483.453L54.7617 370.374C47.632 364.574 42.9816 355.051 42.9814 344.287C42.9816 332.761 48.3143 322.659 56.3135 317.025C56.7251 306.052 57.8715 293.523 60.5127 280.556C63.7355 264.734 69.2721 247.816 78.7109 232.124L7.22071 205.973C-2.40684 202.451 -2.40696 188.834 7.22071 185.312L246.807 97.6691ZM236.604 323.956C246.143 327.445 256.609 327.446 266.148 323.956L385.527 280.286H385.98L389.84 359.412C389.931 360.365 389.98 361.323 389.98 362.286C389.98 397.632 327.748 426.286 250.98 426.286C174.213 426.286 111.98 397.632 111.98 362.286C111.98 361.323 112.029 360.365 112.12 359.412L115.98 280.286H117.225L236.604 323.956Z" fill-rule="evenodd"></path></svg>
