<svg width="128" height="128" viewBox="0 0 128 128" fill="none" xmlns="http://www.w3.org/2000/svg">
<circle cx="62" cy="62" r="58" stroke="white" stroke-width="8"/>
<path d="M58.6255 70.2383L58.7174 70.3122C60.6608 71.8388 63.4583 71.8141 65.3741 70.2383L70.9623 65.6419L96.3436 86.518C96.3873 86.554 96.4173 86.5966 96.4352 86.6417C96.1606 86.8652 95.8065 87 95.4199 87H28.5801C28.1933 87 27.8391 86.8652 27.5645 86.6416C27.5824 86.5965 27.6124 86.554 27.6561 86.518L53.0371 65.6418L58.6255 70.2383Z" fill="white"/>
<path d="M97 80.8316L74.7472 62.5289L97 44.2259V80.8316Z" fill="white"/>
<path d="M49.2521 62.5287L27 80.8313V44.2262L49.2521 62.5287Z" fill="white"/>
<path d="M95.4199 38C95.8132 38 96.1726 38.1396 96.4491 38.37C96.4359 38.4319 96.402 38.4916 96.3436 38.5397L62.2043 66.6193C62.0864 66.7162 61.9133 66.7163 61.7954 66.6193L27.6561 38.5397C27.5977 38.4916 27.5638 38.4319 27.5506 38.37C27.8271 38.1395 28.1868 38 28.5801 38H95.4199Z" fill="#FE701D"/>
</svg>
